<?xml version="1.0" encoding="UTF-8"?>
<!DOCTYPE svg PUBLIC "-//W3C//DTD SVG 1.1//EN" "http://www.w3.org/Graphics/SVG/1.1/DTD/svg11.dtd">
<!-- Creator: CorelDRAW X7 -->
<svg xmlns="http://www.w3.org/2000/svg" xml:space="preserve" width="1024px" height="259px" version="1.1" style="shape-rendering:geometricPrecision; text-rendering:geometricPrecision; image-rendering:optimizeQuality; fill-rule:evenodd; clip-rule:evenodd"
viewBox="0 0 102400 25900"
 xmlns:xlink="http://www.w3.org/1999/xlink">
 <defs>
  <style type="text/css">
   <![CDATA[
    .fil2 {fill:none;fill-rule:nonzero}
    .fil1 {fill:#373435}
    .fil3 {fill:#373435;fill-rule:nonzero}
    .fil0 {fill:#FF6D03;fill-rule:nonzero}
   ]]>
  </style>
 </defs>
 <g id="Layer_x0020_1">
  <metadata id="CorelCorpID_0Corel-Layer"/>
  <g id="_287798472">
   <g>
    <path class="fil0" d="M34225 23982l5913 0 0 -6092 1931 0 0 6092 0 1932 -1931 0 -6957 0c394,-614 744,-1259 1044,-1932zm-1044 -23996l1385 0 5572 0 1931 0 0 1932 0 6092 -1931 0 0 -6092 -5572 0 -341 0c-300,-673 -650,-1318 -1044,-1932zm-31251 17904l0 6092 5913 0c300,673 649,1318 1044,1932l-6957 0 -1932 0 0 -1932 0 -6092 1932 0zm5913 -15972l-14 0 -5899 0 0 6092 -1932 0 0 -6092 0 -1932 1932 0 5899 0 1058 0c-395,614 -744,1259 -1044,1932z"/>
    <g>
     <path class="fil1" d="M21034 3779c5064,0 9171,4106 9171,9171 0,5065 -4107,9171 -9171,9171 -5065,0 -9171,-4106 -9171,-9171 0,-5065 4106,-9171 9171,-9171zm0 1932c3998,0 7239,3241 7239,7239 0,3998 -3241,7239 -7239,7239 -3998,0 -7239,-3241 -7239,-7239 0,-3998 3241,-7239 7239,-7239z"/>
     <path class="fil0" d="M32594 7078l3 5c38,75 76,151 112,227l9 18 1 2 10 22c39,80 76,160 113,241l21 48 97 220 36 85 84 205 32 81c30,77 60,155 88,232l21 58 82 232 29 85 73 225 10 31 7 23 73 247 18 63 73 271 4 11 3 13c23,91 45,182 66,273l12 50c21,93 42,186 61,280l2 11 2 10c19,94 37,188 54,283l10 51c16,93 31,187 46,280l2 15 5 31c14,92 27,186 39,279l1 7 1 6 1 14c26,203 46,406 62,610l5 52c7,95 13,190 18,286l1 22 0 10c5,106 10,213 12,320l0 5c4,110 5,221 5,332 0,7160 -5804,12964 -12964,12964 -7160,0 -12964,-5804 -12964,-12964 0,-111 2,-222 4,-332l0 -5c3,-107 7,-214 13,-320l0 -10 1 -22c5,-96 11,-191 18,-286l5 -52c15,-204 36,-407 62,-610l1 -14 1 -6 1 -7c12,-93 25,-187 39,-279l5 -31 2 -15c14,-93 30,-187 46,-280l9 -51c18,-95 35,-190 55,-283l1 -10 3 -13c20,-93 40,-186 61,-278l11 -50c22,-91 44,-182 67,-273l3 -13 3 -11c24,-91 48,-181 73,-271l20 -69 70 -236 16 -51 72 -222 36 -105 75 -214 28 -75 85 -224 32 -81 83 -205 37 -85 96 -220 21 -48c37,-81 75,-161 113,-241l11 -22 1 -2 8 -18c37,-76 74,-152 113,-227l3 -5c346,-681 751,-1327 1208,-1932l112 -146 96 -122 73 -91 124 -150 90 -107 113 -130 110 -125 80 -87 94 -101 150 -157 90 -92 70 -71 160 -156 101 -96 9 -9 134 -125 3 -2 84 -76 104 -93 163 -140 83 -70 107 -89 12 -10 144 -116 12 -9 87 -68 114 -88 144 -108 140 -101 77 -55 188 -131 82 -55 188 -124 16 -10 11 -7 43 -28 175 -109 70 -43 206 -122 92 -53 198 -110 24 -13 26 -14 201 -106 72 -38c75,-38 150,-75 225,-111l64 -31 240 -112 52 -23 221 -97 32 -14 14 -6 223 -91 99 -39 230 -87 60 -22 204 -72 121 -41 188 -61 84 -27 240 -71 70 -20c86,-24 173,-48 260,-70l13 -4 14 -3c82,-21 165,-41 248,-61l78 -18 259 -56 66 -14 252 -48 28 -5 33 -6c91,-16 182,-31 274,-45l19 -3c96,-15 192,-28 289,-41l55 -7c94,-11 188,-22 282,-32l49 -4 252 -23 70 -6c90,-6 179,-12 269,-17l58 -3c99,-5 198,-8 296,-11l39 -1c103,-2 206,-4 310,-4 103,0 207,2 310,4l38 1c99,3 198,7 296,11l59 3c90,5 179,11 268,17l71 6 252 23 49 4c94,10 188,21 282,32l55 7c97,13 192,26 288,41l20 3c92,14 183,29 274,45l33 6 28 5 252 48 66 14c86,18 172,37 259,56l77 18c84,20 167,40 249,61l14 3 13 4c87,22 174,46 260,70l70 20 239 71 84 27 189 61 120 41 205 72 60 22 230 87 99 39 222 91 15 6 31 14 222 97 52 23c80,36 160,74 240,112l64 31 224 111 72 38 201 106 27 14 24 13 198 110 91 53 206 122 71 43 175 109 43 28 10 7 17 10 188 124 82 55 188 131 77 55 140 101 144 108 114 88 87 68 12 9 143 116 13 10 107 89 83 70 163 140 104 93 84 76 3 2 134 125 9 9 101 96 160 156 70 71 90 92 149 157 95 101 79 87 111 125 112 130 91 107 124 150 72 91 97 122 112 146c457,605 862,1251 1208,1932zm-2136 0l-21 -33 -83 -130 -21 -32 -21 -33 -22 -32 -86 -128 -22 -32 -22 -32 -22 -31 -22 -32 -66 -93 -1 -1 -23 -32 -22 -31 -23 -31 -23 -31 -69 -92 -24 -31 -23 -31 -24 -30 -23 -31 -48 -61 -24 -30 -24 -30 -24 -30 -25 -30 -24 -30 -49 -59 -25 -30 -25 -29 -24 -29 -25 -30 -25 -29 -51 -58 -25 -29 -26 -29 -25 -29 -26 -29 -77 -85 -26 -29 -27 -28 -26 -28 -26 -28 -27 -28 -53 -56 -26 -27 -54 -55 -27 -28c-2013,-2037 -4808,-3299 -7897,-3299 -3090,0 -5884,1262 -7897,3299l-27 28 -54 55 -26 27 -54 56 -26 28 -26 28 -27 28 -26 28 -26 29 -77 85 -26 29 -26 29 -25 29 -25 29 -51 58 -25 29 -25 30 -25 29 -25 30 -97 118 -25 30 -24 30 -24 30 -72 91 -23 31 -24 30 -23 31 -24 31 -69 92 -23 31 -23 31 -23 31 -22 32 -1 0 -66 94 -22 32 -22 31 -22 32 -22 32 -87 128 -21 32 -21 33 -21 32 -84 130 -20 33c-1064,1704 -1679,3716 -1679,5872 0,6132 4971,11103 11103,11103 6132,0 11103,-4971 11103,-11103 0,-2156 -615,-4168 -1679,-5872z"/>
     <path class="fil2" d="M17521 468c86,-24 173,-48 260,-70"/>
     <path class="fil3" d="M22386 10510l3078 1777 0 1c105,61 197,150 262,264 197,343 79,781 -264,978l-3079 1778 -3018 1742c-118,84 -262,133 -417,133 -398,0 -721,-322 -721,-720l0 -3554 4 -3555c-1,-121 30,-244 95,-357 197,-343 635,-462 979,-264l3041 1755c13,7 27,14 40,22z"/>
    </g>
   </g>
   <path class="fil3" d="M98393 15446l4009 0 0 1363 -1323 0 0 5887 -1404 0 0 -5887 -1282 0 0 -1363zm-4376 1171c-668,0 -1230,234 -1684,700 -457,467 -684,1059 -684,1779 0,801 286,1436 860,1902 446,365 956,547 1533,547 652,0 1207,-237 1665,-710 460,-473 688,-1055 688,-1749 0,-690 -230,-1274 -693,-1752 -461,-478 -1023,-717 -1685,-717zm20 -1353c1025,0 1907,372 2644,1114 739,743 1108,1648 1108,2715 0,1059 -364,1954 -1092,2686 -727,732 -1611,1099 -2649,1099 -1089,0 -1993,-377 -2712,-1129 -720,-752 -1080,-1646 -1080,-2681 0,-692 168,-1330 503,-1912 335,-581 796,-1042 1382,-1382 587,-340 1220,-510 1896,-510zm-10296 182l1403 0 0 2736 2424 0 0 -2736 1393 0 0 7250 -1393 0 0 -3181 -2424 0 0 3181 -1403 0 0 -7250zm-1435 986l-1023 902c-358,-498 -724,-747 -1096,-747 -181,0 -329,49 -444,145 -116,97 -173,207 -173,328 0,121 40,237 123,345 113,145 451,454 1015,931 526,441 846,718 959,833 279,283 478,552 596,809 116,260 175,541 175,845 0,596 -205,1086 -618,1474 -411,388 -947,581 -1611,581 -516,0 -966,-126 -1349,-378 -384,-255 -714,-652 -987,-1194l1163 -700c350,640 753,959 1207,959 237,0 438,-69 599,-207 162,-138 243,-298 243,-478 0,-163 -61,-328 -184,-493 -121,-163 -390,-415 -806,-754 -791,-643 -1301,-1139 -1532,-1489 -230,-350 -346,-699 -346,-1047 0,-503 192,-934 574,-1293 383,-360 856,-540 1418,-540 362,0 707,84 1034,251 328,168 682,473 1063,917zm-8098 1851l442 0c349,0 590,-25 726,-74 136,-50 242,-131 321,-245 78,-115 117,-253 117,-416 0,-281 -110,-486 -329,-614 -158,-96 -454,-145 -885,-145l-392 0 0 1494zm-1373 -2837l1465 0c793,0 1364,72 1714,219 350,146 628,383 830,710 201,326 303,719 303,1176 0,507 -133,928 -399,1263 -265,335 -625,568 -1081,700 -267,75 -754,113 -1459,113l0 3069 -1373 0 0 -7250zm-4546 1927l-983 2496 1961 0 -978 -2496zm-697 -1927l1390 0 2791 7250 -1436 0 -565 -1494 -2973 0 -579 1494 -1435 0 2807 -7250zm-9676 0l1310 0 3123 4771 0 -4771 1374 0 0 7250 -1320 0 -3113 -4756 0 4756 -1374 0 0 -7250zm-1454 986l-1023 902c-358,-498 -724,-747 -1096,-747 -182,0 -330,49 -444,145 -116,97 -173,207 -173,328 0,121 40,237 123,345 112,145 451,454 1014,931 527,441 847,718 960,833 279,283 478,552 596,809 116,260 174,541 174,845 0,596 -205,1086 -617,1474 -411,388 -948,581 -1611,581 -516,0 -966,-126 -1350,-378 -383,-255 -713,-652 -986,-1194l1163 -700c350,640 752,959 1207,959 237,0 437,-69 599,-207 162,-138 242,-298 242,-478 0,-163 -60,-328 -183,-493 -121,-163 -391,-415 -806,-754 -791,-643 -1301,-1139 -1532,-1489 -230,-350 -347,-699 -347,-1047 0,-503 192,-934 574,-1293 384,-360 857,-540 1419,-540 362,0 707,84 1033,251 329,168 682,473 1064,917z"/>
   <path class="fil0" d="M94834 4190l-1023 902c-358,-498 -724,-747 -1096,-747 -181,0 -330,48 -444,144 -116,98 -173,208 -173,329 0,121 40,237 123,345 112,145 451,454 1014,930 527,441 847,719 960,833 279,283 478,553 596,810 116,259 174,540 174,845 0,595 -205,1085 -617,1474 -411,387 -948,581 -1611,581 -516,0 -966,-127 -1349,-379 -384,-254 -714,-651 -987,-1193l1163 -700c350,639 752,959 1207,959 237,0 437,-69 599,-207 162,-138 242,-298 242,-478 0,-163 -60,-328 -183,-493 -121,-163 -391,-416 -806,-754 -791,-643 -1301,-1139 -1532,-1490 -230,-350 -347,-698 -347,-1046 0,-503 192,-934 574,-1293 384,-360 857,-540 1419,-540 362,0 707,84 1034,251 328,168 681,473 1063,917z"/>
   <path class="fil0" d="M87978 3204l1383 0 0 4810c0,765 -60,1302 -182,1612 -121,308 -321,554 -599,735 -279,184 -612,275 -1003,275 -794,0 -1472,-350 -2033,-1050l991 -934c219,250 406,417 559,503 155,86 303,128 448,128 146,0 256,-63 328,-187 72,-124 108,-399 108,-823l0 -5069z"/>
   <path class="fil0" d="M78272 4375c-669,0 -1231,234 -1685,700 -456,466 -683,1059 -683,1779 0,801 286,1436 860,1902 446,365 955,547 1533,547 651,0 1206,-237 1664,-710 460,-473 689,-1056 689,-1749 0,-690 -231,-1274 -694,-1752 -461,-478 -1023,-717 -1684,-717zm20 -1353c1025,0 1907,372 2644,1114 738,742 1107,1648 1107,2715 0,1058 -363,1954 -1092,2686 -727,732 -1611,1099 -2649,1099 -1089,0 -1993,-377 -2712,-1129 -720,-753 -1080,-1647 -1080,-2682 0,-691 168,-1329 503,-1912 335,-580 796,-1041 1382,-1381 587,-340 1220,-510 1897,-510zm-8660 182l3959 0 0 1353 -2585 0 0 1302 2585 0 0 1333 -2585 0 0 1909 2585 0 0 1353 -3959 0 0 -7250zm-5697 1333l0 4574 640 0c631,0 1087,-72 1372,-217 284,-145 516,-389 696,-731 180,-341 271,-762 271,-1264 0,-769 -215,-1366 -644,-1790 -387,-382 -1010,-572 -1867,-572l-468 0zm-1373 -1333l1634 0c1054,0 1836,131 2350,392 511,261 934,685 1265,1274 332,587 497,1274 497,2060 0,559 -93,1072 -278,1540 -185,468 -443,856 -769,1166 -327,308 -680,522 -1060,641 -381,118 -1040,177 -1980,177l-1659 0 0 -7250zm-2937 0l1373 0 0 7250 -1373 0 0 -7250zm-7520 0l1419 0 1822 5150 1859 -5150 1413 0 -2617 7250 -1331 0 -2565 -7250z"/>
  </g>
 </g>
</svg>
